<?xml version="1.0" encoding="UTF-8" standalone="no"?>
<!DOCTYPE svg PUBLIC "-//W3C//DTD SVG 1.1//EN" "http://www.w3.org/Graphics/SVG/1.1/DTD/svg11.dtd">
<svg width="100%" height="100%" viewBox="0 0 929 255" version="1.1" xmlns="http://www.w3.org/2000/svg" xmlns:xlink="http://www.w3.org/1999/xlink" xml:space="preserve" xmlns:serif="http://www.serif.com/" style="fill-rule:evenodd;clip-rule:evenodd;stroke-linejoin:round;stroke-miterlimit:1.41421;">
    <g transform="matrix(1,0,0,1,-3479.52,-6257.39)">
        <g id="this-one" serif:id="this one" transform="matrix(1.85676,0,0,0.509714,3479.52,6257.39)">
            <rect x="0" y="0" width="500" height="500" style="fill:none;"/>
            <g transform="matrix(0.500941,0,0,1.8248,-169.881,-1452.12)">
                <g id="Layer-2" serif:id="Layer 2">
                    <g>
                        <g transform="matrix(3.04611,0,0,3.04611,87.6274,173.685)">
                            <path d="M186.66,225.457L186.66,219.77L191.192,219.77C191.979,219.77 192.652,220.045 193.21,220.595C193.769,221.153 194.048,221.826 194.048,222.613C194.048,223.392 193.769,224.061 193.21,224.619C192.652,225.178 191.979,225.457 191.192,225.457L186.66,225.457ZM192.322,227.615C193.456,227.344 194.4,226.769 195.153,225.889C195.915,224.983 196.317,223.942 196.359,222.766C196.401,221.31 195.915,220.062 194.899,219.021C193.883,217.98 192.648,217.459 191.192,217.459L184.514,217.459C184.404,217.459 184.349,217.514 184.349,217.624L184.349,235.448C184.349,235.558 184.404,235.613 184.514,235.613L186.495,235.613C186.605,235.613 186.66,235.558 186.66,235.448L186.66,227.768L189.795,227.768L189.783,227.78L194.048,235.563C194.074,235.622 194.12,235.651 194.188,235.651L196.448,235.651C196.515,235.651 196.562,235.626 196.587,235.575C196.621,235.516 196.625,235.461 196.6,235.41L192.322,227.615Z" style="fill:rgb(42,144,81);fill-rule:nonzero;"/>
                            <path d="M206.658,217.472C206.548,217.472 206.493,217.527 206.493,217.637L206.493,235.486C206.493,235.596 206.548,235.651 206.658,235.651L218.464,235.651C218.574,235.651 218.629,235.596 218.629,235.486L218.629,233.506C218.629,233.396 218.574,233.341 218.464,233.341L208.803,233.341L208.803,227.717L215.798,227.717C215.908,227.717 215.963,227.662 215.963,227.552L215.963,225.571C215.963,225.461 215.908,225.406 215.798,225.406L208.803,225.406L208.803,219.782L218.464,219.782C218.574,219.782 218.629,219.727 218.629,219.617L218.629,217.637C218.629,217.527 218.574,217.472 218.464,217.472L206.658,217.472Z" style="fill:rgb(42,144,81);fill-rule:nonzero;"/>
                            <path d="M233.194,224.886L233.156,224.86C232.056,224.386 231.29,223.963 230.858,223.591C230.342,223.151 230.084,222.634 230.084,222.042C230.084,220.536 231.095,219.782 233.118,219.782C233.905,219.782 234.65,219.947 235.352,220.277C235.598,220.387 235.835,220.519 236.063,220.671C236.148,220.73 236.228,220.789 236.304,220.849C236.364,220.899 236.419,220.95 236.469,221.001C236.546,221.06 236.622,221.056 236.698,220.988L237.422,220.303L238.133,219.63C238.226,219.545 238.226,219.465 238.133,219.389C238.065,219.321 237.989,219.249 237.904,219.173C237.786,219.08 237.667,218.991 237.549,218.906C237.218,218.661 236.867,218.445 236.495,218.259C235.437,217.734 234.311,217.472 233.118,217.472C231.467,217.472 230.164,217.882 229.208,218.703C228.251,219.516 227.773,220.629 227.773,222.042C227.773,223.345 228.302,224.45 229.36,225.356C229.758,225.694 230.24,226.011 230.807,226.308C231.027,226.426 231.273,226.549 231.544,226.676L231.886,226.828L232.204,226.968L232.8,227.26L232.839,227.272C234.091,227.823 234.976,228.322 235.492,228.771C236.101,229.295 236.406,229.909 236.406,230.611C236.406,232.431 235.208,233.341 232.813,233.341C231.882,233.341 231.006,233.146 230.185,232.757C229.889,232.613 229.614,232.452 229.36,232.274C229.258,232.207 229.165,232.139 229.081,232.071C229.013,232.012 228.95,231.957 228.89,231.906C228.814,231.839 228.738,231.839 228.662,231.906L227.215,233.265C227.13,233.349 227.13,233.43 227.215,233.506C227.291,233.582 227.375,233.658 227.468,233.734C227.595,233.836 227.727,233.938 227.862,234.039C228.226,234.31 228.615,234.551 229.03,234.763C230.215,235.355 231.476,235.651 232.813,235.651C234.633,235.651 236.072,235.199 237.13,234.293C238.188,233.396 238.717,232.169 238.717,230.611C238.717,229.181 238.128,227.967 236.952,226.968C236.512,226.595 235.974,226.24 235.34,225.901C235.094,225.774 234.823,225.639 234.527,225.495L234.146,225.33C234.062,225.288 233.939,225.233 233.778,225.165L233.194,224.886Z" style="fill:rgb(42,144,81);fill-rule:nonzero;"/>
                            <path d="M256.683,233.328C254.813,233.328 253.218,232.668 251.897,231.348C250.577,230.027 249.917,228.432 249.917,226.562C249.917,224.7 250.577,223.104 251.897,221.775C253.218,220.455 254.813,219.795 256.683,219.795C258.545,219.795 260.141,220.455 261.47,221.775C262.79,223.104 263.45,224.7 263.45,226.562C263.45,228.432 262.79,230.027 261.47,231.348C260.141,232.668 258.545,233.328 256.683,233.328ZM256.683,217.472C254.178,217.472 252.037,218.36 250.26,220.138C248.482,221.915 247.594,224.056 247.594,226.562C247.594,229.067 248.482,231.208 250.26,232.985C252.037,234.763 254.178,235.651 256.683,235.651C259.189,235.651 261.33,234.763 263.107,232.985C264.885,231.208 265.773,229.067 265.773,226.562C265.773,224.056 264.885,221.915 263.107,220.138C261.33,218.36 259.189,217.472 256.683,217.472Z" style="fill:rgb(42,144,81);fill-rule:nonzero;"/>
                            <path d="M278.472,233.328L278.472,217.624C278.472,217.514 278.417,217.459 278.307,217.459L276.313,217.459C276.203,217.459 276.148,217.514 276.148,217.624L276.148,235.486C276.148,235.596 276.203,235.651 276.313,235.651L286.419,235.651C286.529,235.651 286.584,235.596 286.584,235.486L286.584,233.493C286.584,233.383 286.529,233.328 286.419,233.328L278.472,233.328Z" style="fill:rgb(42,144,81);fill-rule:nonzero;"/>
                            <path d="M306.671,217.472C306.561,217.472 306.506,217.527 306.506,217.637L306.506,229.126C306.506,230.311 306.074,231.322 305.211,232.16C304.348,232.99 303.319,233.383 302.126,233.341C300.992,233.299 300.027,232.854 299.232,232.008C298.453,231.161 298.064,230.163 298.064,229.012L298.064,217.637C298.064,217.527 298.009,217.472 297.898,217.472L295.918,217.472C295.808,217.472 295.753,217.527 295.753,217.637L295.753,228.986C295.753,230.823 296.405,232.397 297.708,233.709C299.011,235.038 300.573,235.685 302.393,235.651C304.17,235.618 305.685,234.966 306.938,233.696C308.19,232.427 308.816,230.903 308.816,229.126L308.816,217.637C308.816,217.527 308.761,217.472 308.651,217.472L306.671,217.472Z" style="fill:rgb(42,144,81);fill-rule:nonzero;"/>
                            <path d="M318.506,217.472C318.396,217.472 318.341,217.527 318.341,217.637L318.341,219.617C318.341,219.727 318.396,219.782 318.506,219.782L323.279,219.782L323.279,235.486C323.279,235.596 323.334,235.651 323.445,235.651L325.425,235.651C325.535,235.651 325.59,235.596 325.59,235.486L325.59,219.782L330.351,219.782C330.461,219.782 330.516,219.727 330.516,219.617L330.516,217.637C330.516,217.527 330.461,217.472 330.351,217.472L318.506,217.472Z" style="fill:rgb(42,144,81);fill-rule:nonzero;"/>
                            <path d="M339.937,217.472C339.827,217.472 339.772,217.527 339.772,217.637L339.772,235.486C339.772,235.596 339.827,235.651 339.937,235.651L341.93,235.651C342.041,235.651 342.096,235.596 342.096,235.486L342.096,217.637C342.096,217.527 342.041,217.472 341.93,217.472L339.937,217.472Z" style="fill:rgb(42,144,81);fill-rule:nonzero;"/>
                            <path d="M361.04,233.328C359.17,233.328 357.574,232.668 356.254,231.348C354.934,230.027 354.273,228.432 354.273,226.562C354.273,224.7 354.934,223.104 356.254,221.775C357.574,220.455 359.17,219.795 361.04,219.795C362.902,219.795 364.497,220.455 365.826,221.775C367.146,223.104 367.807,224.7 367.807,226.562C367.807,228.432 367.146,230.027 365.826,231.348C364.497,232.668 362.902,233.328 361.04,233.328ZM361.04,217.472C358.535,217.472 356.394,218.36 354.616,220.138C352.839,221.915 351.95,224.056 351.95,226.562C351.95,229.067 352.839,231.208 354.616,232.985C356.394,234.763 358.535,235.651 361.04,235.651C363.545,235.651 365.686,234.763 367.464,232.985C369.241,231.208 370.13,229.067 370.13,226.562C370.13,224.056 369.241,221.915 367.464,220.138C365.686,218.36 363.545,217.472 361.04,217.472Z" style="fill:rgb(42,144,81);fill-rule:nonzero;"/>
                            <path d="M391.55,217.459C391.44,217.459 391.385,217.514 391.385,217.624L391.385,230.548L381.635,217.535C381.601,217.484 381.559,217.459 381.508,217.459L380.67,217.459C380.56,217.459 380.505,217.514 380.505,217.624L380.505,235.486C380.505,235.596 380.56,235.651 380.67,235.651L382.549,235.651C382.659,235.651 382.714,235.596 382.714,235.486L382.714,222.651L392.4,235.588C392.434,235.63 392.477,235.651 392.527,235.651L393.429,235.651C393.539,235.651 393.594,235.596 393.594,235.486L393.594,217.624C393.594,217.514 393.539,217.459 393.429,217.459L391.55,217.459Z" style="fill:rgb(42,144,81);fill-rule:nonzero;"/>
                            <path d="M183.817,268.879C183.737,268.879 183.697,268.919 183.697,269L183.697,270.447C183.697,270.527 183.737,270.567 183.817,270.567L187.306,270.567L187.306,282.043C187.306,282.124 187.346,282.164 187.426,282.164L188.873,282.164C188.954,282.164 188.994,282.124 188.994,282.043L188.994,270.567L192.473,270.567C192.554,270.567 192.594,270.527 192.594,270.447L192.594,269C192.594,268.919 192.554,268.879 192.473,268.879L183.817,268.879Z" style="fill:rgb(42,144,81);fill-rule:nonzero;"/>
                            <path d="M199.554,268.879C199.474,268.879 199.433,268.919 199.433,269L199.433,282.043C199.433,282.124 199.474,282.164 199.554,282.164L208.182,282.164C208.262,282.164 208.302,282.124 208.302,282.043L208.302,280.596C208.302,280.516 208.262,280.476 208.182,280.476L201.122,280.476L201.122,276.366L206.234,276.366C206.314,276.366 206.354,276.326 206.354,276.245L206.354,274.798C206.354,274.717 206.314,274.677 206.234,274.677L201.122,274.677L201.122,270.567L208.182,270.567C208.262,270.567 208.302,270.527 208.302,270.447L208.302,269C208.302,268.919 208.262,268.879 208.182,268.879L199.554,268.879Z" style="fill:rgb(42,144,81);fill-rule:nonzero;"/>
                            <path d="M218.463,275.355L220.143,271.319L221.813,275.355L218.463,275.355ZM219.493,268.851C219.444,268.851 219.407,268.876 219.382,268.925L213.955,281.997C213.936,282.034 213.939,282.071 213.964,282.108C213.989,282.146 214.023,282.164 214.066,282.164L215.55,282.164C215.606,282.164 215.643,282.139 215.662,282.09L217.786,276.969L222.49,276.969L224.614,282.09C224.633,282.139 224.67,282.164 224.726,282.164L226.21,282.164C226.253,282.164 226.287,282.146 226.312,282.108C226.337,282.071 226.34,282.034 226.321,281.997L220.894,268.925C220.876,268.876 220.838,268.851 220.783,268.851L219.493,268.851Z" style="fill:rgb(42,144,81);fill-rule:nonzero;"/>
                            <path d="M243.255,268.879C243.162,268.879 243.082,268.916 243.013,268.99L238.477,274.056L233.95,268.99C233.881,268.916 233.801,268.879 233.708,268.879L233.17,268.879C233.09,268.879 233.05,268.919 233.05,269L233.05,282.043C233.05,282.124 233.09,282.164 233.17,282.164L234.543,282.164C234.624,282.164 234.664,282.124 234.664,282.043L234.664,272.21L238.393,276.375C238.449,276.437 238.508,276.437 238.57,276.375L242.308,272.2L242.308,282.043C242.308,282.124 242.349,282.164 242.429,282.164L243.802,282.164C243.882,282.164 243.923,282.124 243.923,282.043L243.923,269C243.923,268.919 243.882,268.879 243.802,268.879L243.255,268.879Z" style="fill:rgb(42,144,81);fill-rule:nonzero;"/>
                            <path d="M263.593,280.559L267.842,274.223L267.851,274.204C268.185,273.647 268.352,273.041 268.352,272.386C268.352,271.415 268.009,270.583 267.322,269.89C266.629,269.197 265.794,268.851 264.817,268.851C264.063,268.851 263.376,269.074 262.758,269.519C262.139,269.964 261.709,270.543 261.468,271.254C261.443,271.334 261.471,271.387 261.552,271.412L262.86,271.801C262.934,271.82 262.983,271.795 263.008,271.727C263.144,271.35 263.379,271.044 263.713,270.809C264.047,270.574 264.415,270.456 264.817,270.456C265.349,270.456 265.804,270.645 266.181,271.022C266.558,271.399 266.747,271.854 266.747,272.386C266.747,272.738 266.66,273.063 266.487,273.36L260.707,281.979C260.683,282.016 260.683,282.056 260.707,282.099C260.726,282.142 260.76,282.164 260.809,282.164L268.677,282.164C268.751,282.164 268.788,282.124 268.788,282.043L268.788,280.68C268.788,280.599 268.751,280.559 268.677,280.559L263.593,280.559Z" style="fill:rgb(42,144,81);fill-rule:nonzero;"/>
                            <path d="M278.364,276.681L280.851,273.304L280.851,276.681L278.364,276.681ZM282.391,276.681L282.391,268.962C282.391,268.907 282.366,268.873 282.316,268.86C282.261,268.842 282.217,268.854 282.187,268.897L275.451,278.036C275.42,278.073 275.414,278.113 275.433,278.156C275.457,278.2 275.494,278.221 275.544,278.221L280.851,278.221L280.851,282.053C280.851,282.127 280.888,282.164 280.962,282.164L282.279,282.164C282.354,282.164 282.391,282.127 282.391,282.053L282.391,278.221L283.745,278.221C283.826,278.221 283.866,278.181 283.866,278.101L283.866,276.793C283.866,276.718 283.826,276.681 283.745,276.681L282.391,276.681Z" style="fill:rgb(42,144,81);fill-rule:nonzero;"/>
                            <path d="M299.203,277.015C299.203,278.741 298.822,280.063 298.058,280.981C297.294,281.9 296.247,282.359 294.917,282.359C293.588,282.359 292.536,281.898 291.763,280.977C290.99,280.055 290.603,278.735 290.603,277.015L290.603,273.814C290.603,272.095 290.988,270.773 291.758,269.848C292.528,268.924 293.575,268.461 294.899,268.461C296.228,268.461 297.278,268.924 298.048,269.848C298.818,270.773 299.203,272.095 299.203,273.814L299.203,277.015ZM297.376,273.422C297.376,272.254 297.164,271.375 296.74,270.785C296.317,270.195 295.703,269.899 294.899,269.899C294.095,269.899 293.482,270.195 293.062,270.785C292.641,271.375 292.431,272.254 292.431,273.422L292.431,277.38C292.431,278.548 292.644,279.43 293.071,280.026C293.498,280.623 294.113,280.921 294.917,280.921C295.721,280.921 296.332,280.624 296.75,280.031C297.167,279.438 297.376,278.554 297.376,277.38L297.376,273.422Z" style="fill:rgb(42,144,81);fill-rule:nonzero;"/>
                            <path d="M308.427,274.742L308.427,270.567L311.758,270.567C312.339,270.567 312.834,270.772 313.242,271.18C313.65,271.588 313.855,272.08 313.855,272.655C313.855,273.23 313.65,273.722 313.242,274.13C312.834,274.538 312.339,274.742 311.758,274.742L308.427,274.742ZM306.85,268.87C306.77,268.87 306.73,268.907 306.73,268.981L306.73,282.043C306.73,282.124 306.77,282.164 306.85,282.164L308.307,282.164C308.387,282.164 308.427,282.124 308.427,282.043L308.427,276.449L311.684,276.449C312.717,276.449 313.61,276.094 314.365,275.382C315.126,274.665 315.521,273.793 315.552,272.766C315.583,271.696 315.225,270.778 314.476,270.011C313.734,269.25 312.828,268.87 311.758,268.87L306.85,268.87Z" style="fill:rgb(42,144,81);fill-rule:nonzero;"/>
                        </g>
                        <g transform="matrix(3.04611,0,0,3.04611,87.6274,173.685)">
                            <path d="M187.529,250.275L187.529,243.494L192.933,243.494C193.871,243.494 194.673,243.822 195.339,244.478C196.005,245.144 196.338,245.946 196.338,246.884C196.338,247.813 196.005,248.61 195.339,249.276C194.673,249.942 193.871,250.275 192.933,250.275L187.529,250.275ZM194.28,252.848C195.632,252.525 196.757,251.839 197.655,250.79C198.563,249.71 199.043,248.469 199.093,247.066C199.144,245.33 198.563,243.842 197.353,242.601C196.142,241.359 194.668,240.739 192.933,240.739L184.971,240.739C184.839,240.739 184.774,240.804 184.774,240.936L184.774,262.188C184.774,262.319 184.839,262.384 184.971,262.384L187.332,262.384C187.463,262.384 187.529,262.319 187.529,262.188L187.529,253.03L191.268,253.03L191.252,253.045L196.338,262.324C196.369,262.394 196.424,262.43 196.505,262.43L199.199,262.43C199.28,262.43 199.335,262.399 199.366,262.339C199.406,262.268 199.411,262.203 199.381,262.142L194.28,252.848Z" style="fill:rgb(213,213,213);fill-rule:nonzero;"/>
                            <path d="M222.915,259.66C220.685,259.66 218.783,258.873 217.209,257.298C215.635,255.724 214.848,253.822 214.848,251.592C214.848,249.372 215.635,247.47 217.209,245.885C218.783,244.311 220.685,243.524 222.915,243.524C225.135,243.524 227.038,244.311 228.622,245.885C230.196,247.47 230.983,249.372 230.983,251.592C230.983,253.822 230.196,255.724 228.622,257.298C227.038,258.873 225.135,259.66 222.915,259.66ZM222.915,240.754C219.928,240.754 217.375,241.813 215.256,243.933C213.137,246.052 212.078,248.605 212.078,251.592C212.078,254.579 213.137,257.132 215.256,259.251C217.375,261.37 219.928,262.43 222.915,262.43C225.902,262.43 228.455,261.37 230.575,259.251C232.694,257.132 233.753,254.579 233.753,251.592C233.753,248.605 232.694,246.052 230.575,243.933C228.455,241.813 225.902,240.754 222.915,240.754Z" style="fill:rgb(213,213,213);fill-rule:nonzero;"/>
                            <path d="M251.339,259.675L251.339,252.394L257.273,252.394C258.282,252.394 259.14,252.747 259.846,253.454C260.562,254.17 260.921,255.028 260.921,256.027C260.921,257.036 260.562,257.894 259.846,258.6C259.14,259.317 258.282,259.675 257.273,259.675L251.339,259.675ZM251.339,243.509L256.592,243.509C257.429,243.509 258.146,243.812 258.741,244.417C259.346,245.012 259.649,245.729 259.649,246.566C259.649,247.414 259.346,248.136 258.741,248.731C258.146,249.326 257.429,249.624 256.592,249.624L251.339,249.624L251.339,243.509ZM260.694,250.623C261.864,249.463 262.434,248.08 262.404,246.476C262.374,244.891 261.794,243.544 260.663,242.434C259.533,241.314 258.176,240.754 256.592,240.754L248.781,240.754C248.65,240.754 248.584,240.82 248.584,240.951L248.584,262.233C248.584,262.364 248.65,262.43 248.781,262.43L257.136,262.43C258.892,262.43 260.406,261.829 261.678,260.628C262.959,259.428 263.625,257.959 263.676,256.224C263.706,255.063 263.448,253.983 262.904,252.984C262.369,252.006 261.632,251.218 260.694,250.623Z" style="fill:rgb(213,213,213);fill-rule:nonzero;"/>
                            <path d="M288.012,259.66C285.782,259.66 283.88,258.873 282.306,257.298C280.732,255.724 279.944,253.822 279.944,251.592C279.944,249.372 280.732,247.47 282.306,245.885C283.88,244.311 285.782,243.524 288.012,243.524C290.232,243.524 292.135,244.311 293.719,245.885C295.293,247.47 296.08,249.372 296.08,251.592C296.08,253.822 295.293,255.724 293.719,257.298C292.135,258.873 290.232,259.66 288.012,259.66ZM288.012,240.754C285.025,240.754 282.472,241.813 280.353,243.933C278.234,246.052 277.174,248.605 277.174,251.592C277.174,254.579 278.234,257.132 280.353,259.251C282.472,261.37 285.025,262.43 288.012,262.43C290.999,262.43 293.552,261.37 295.672,259.251C297.791,257.132 298.85,254.579 298.85,251.592C298.85,248.605 297.791,246.052 295.672,243.933C293.552,241.813 290.999,240.754 288.012,240.754Z" style="fill:rgb(213,213,213);fill-rule:nonzero;"/>
                            <path d="M312.017,240.754C311.886,240.754 311.821,240.82 311.821,240.951L311.821,243.312C311.821,243.443 311.886,243.509 312.017,243.509L317.709,243.509L317.709,262.233C317.709,262.364 317.774,262.43 317.906,262.43L320.267,262.43C320.398,262.43 320.464,262.364 320.464,262.233L320.464,243.509L326.14,243.509C326.271,243.509 326.337,243.443 326.337,243.312L326.337,240.951C326.337,240.82 326.271,240.754 326.14,240.754L312.017,240.754Z" style="fill:rgb(213,213,213);fill-rule:nonzero;"/>
                            <path d="M340.154,240.754C340.022,240.754 339.957,240.82 339.957,240.951L339.957,262.233C339.957,262.364 340.022,262.43 340.154,262.43L342.53,262.43C342.661,262.43 342.727,262.364 342.727,262.233L342.727,240.951C342.727,240.82 342.661,240.754 342.53,240.754L340.154,240.754Z" style="fill:rgb(213,213,213);fill-rule:nonzero;"/>
                            <path d="M372.573,258.449C372.503,258.338 372.412,258.318 372.301,258.388C370.979,259.246 369.521,259.675 367.926,259.675C365.686,259.675 363.774,258.873 362.19,257.268C360.595,255.664 359.813,253.736 359.843,251.486C359.874,249.407 360.605,247.601 362.038,246.067C363.481,244.533 365.232,243.685 367.291,243.524C369.107,243.383 370.772,243.801 372.286,244.78C372.397,244.851 372.488,244.831 372.558,244.72L373.89,242.767C373.961,242.656 373.941,242.565 373.83,242.495C371.781,241.163 369.526,240.592 367.064,240.784C364.379,240.996 362.089,242.076 360.192,244.023C358.284,245.971 357.255,248.287 357.104,250.971C356.932,254.089 357.921,256.779 360.07,259.039C361.08,260.109 362.25,260.936 363.582,261.521C364.965,262.127 366.413,262.43 367.926,262.43C370.086,262.43 372.059,261.844 373.845,260.674C373.956,260.603 373.976,260.512 373.905,260.401L372.573,258.449Z" style="fill:rgb(213,213,213);fill-rule:nonzero;"/>
                            <path d="M393.232,249.594L393.187,249.563C391.875,248.998 390.961,248.494 390.447,248.05C389.831,247.525 389.523,246.91 389.523,246.203C389.523,244.407 390.729,243.509 393.141,243.509C394.08,243.509 394.968,243.706 395.805,244.099C396.098,244.23 396.38,244.387 396.653,244.568C396.754,244.639 396.85,244.71 396.94,244.78C397.011,244.841 397.077,244.901 397.137,244.962C397.228,245.033 397.319,245.028 397.41,244.947L398.272,244.129L399.12,243.327C399.231,243.226 399.231,243.13 399.12,243.04C399.039,242.959 398.949,242.873 398.848,242.782C398.706,242.671 398.565,242.565 398.424,242.464C398.03,242.172 397.612,241.914 397.168,241.692C395.906,241.067 394.564,240.754 393.141,240.754C391.173,240.754 389.619,241.243 388.479,242.222C387.339,243.191 386.769,244.518 386.769,246.203C386.769,247.757 387.399,249.074 388.661,250.154C389.135,250.557 389.71,250.936 390.386,251.289C390.649,251.43 390.941,251.577 391.264,251.728L391.673,251.91L392.051,252.076L392.763,252.424L392.808,252.439C394.302,253.095 395.356,253.691 395.972,254.226C396.698,254.851 397.062,255.583 397.062,256.42C397.062,258.59 395.634,259.675 392.778,259.675C391.668,259.675 390.623,259.443 389.645,258.979C389.291,258.807 388.963,258.615 388.661,258.403C388.54,258.323 388.429,258.242 388.328,258.161C388.247,258.091 388.171,258.025 388.101,257.964C388.01,257.884 387.919,257.884 387.828,257.964L386.103,259.584C386.002,259.685 386.002,259.781 386.103,259.872C386.193,259.962 386.294,260.053 386.405,260.144C386.557,260.265 386.713,260.386 386.875,260.507C387.308,260.83 387.773,261.118 388.267,261.37C389.68,262.077 391.183,262.43 392.778,262.43C394.947,262.43 396.663,261.89 397.924,260.81C399.186,259.74 399.816,258.277 399.816,256.42C399.816,254.715 399.115,253.267 397.712,252.076C397.188,251.632 396.547,251.208 395.79,250.805C395.497,250.653 395.175,250.492 394.821,250.32L394.367,250.124C394.266,250.073 394.12,250.007 393.928,249.927L393.232,249.594Z" style="fill:rgb(213,213,213);fill-rule:nonzero;"/>
                        </g>
                        <g transform="matrix(3.04611,0,0,3.04611,569.635,949.358)">
                            <path d="M0,-10.639L0,-28.536L-10.971,-28.536L-10.971,-15.282L0,-10.639ZM0,-38.16L13.165,-38.16L13.165,-10.807L6.813,-8.19L13.165,-5.489L13.165,27.521L0,27.521L0,1.603L4.042,1.603L3.811,1.518L0,-0.086L-10.971,-4.729L-10.971,27.521L-24.136,27.521L-24.136,-10.301L-24.136,-11.23L-24.136,-19.925L-24.136,-20.769L-24.136,-28.536L-24.136,-38.16L0,-38.16Z" style="fill:rgb(58,164,220);fill-rule:nonzero;"/>
                        </g>
                        <g transform="matrix(3.04611,0,0,3.04611,563.112,957.9)">
                            <path d="M0,-16.423L0,-29.511L-7.137,-29.511L-7.137,-19.444L0,-16.423ZM0,26.546L0,-1.707L-7.137,-4.728L-7.137,26.546L-21.983,26.466L-21.988,-43.042L16.999,-42.969L16.999,-12.416L14.022,-11.054L16.999,-9.648L16.999,26.546L0,26.546Z" style="fill:rgb(213,213,213);fill-rule:nonzero;"/>
                        </g>
                        <g transform="matrix(3.04611,0,0,3.04611,569.635,934.183)">
                            <path d="M0,31.323L0,32.502L13.165,32.502L13.165,10.383L13.165,9.539L13.165,0.844L13.165,-0.085L13.165,-0.508L11.584,-1.179L0,31.323Z" style="fill:rgb(67,67,67);fill-rule:nonzero;"/>
                        </g>
                        <g transform="matrix(3.04611,0,0,3.04611,536.217,983.841)">
                            <path d="M0,-39.857L4.471,-39.857L7.901,-49.481L0,-49.481L-13.165,-49.481L-13.165,9.624L0,-27.313L0,-39.857Z" style="fill:rgb(67,67,67);fill-rule:nonzero;"/>
                        </g>
                        <g transform="matrix(3.04611,0,0,3.04611,590.388,941.897)">
                            <path d="M0,-5.741L6.352,-8.358L6.352,-26.087L6.352,-35.711L-6.813,-35.711L-9.883,-35.711L-13.313,-26.087L-6.813,-26.087L-6.813,-8.19L-17.784,-12.833L-17.784,-13.543L-30.949,23.394L-30.949,29.97L-17.784,29.97L-17.784,-2.28L-6.813,2.363L-3.002,3.967L-2.771,4.052L-6.813,4.052L-6.813,28.791L4.771,-3.712L0,-5.741Z" style="fill:rgb(41,41,41);fill-rule:nonzero;"/>
                        </g>
                        <g transform="matrix(3.04611,0,0,3.04611,444.375,957.665)">
                            <path d="M0,-16.423L0,-29.511L-7.137,-29.511L-7.137,-19.444L0,-16.423ZM0,26.546L0,-1.707L-7.137,-4.728L-7.137,26.546L-24.135,26.546L-24.135,-42.969L16.999,-42.969L16.999,-12.416L14.022,-11.054L16.999,-9.648L16.999,26.546L0,26.546Z" style="fill:rgb(213,213,213);fill-rule:nonzero;"/>
                        </g>
                        <g transform="matrix(3.04611,0,0,3.04611,450.214,933.684)">
                            <path d="M0,31.323L0,32.502L13.165,32.502L13.165,10.383L13.165,9.539L13.165,0.844L13.165,-0.085L13.165,-0.508L11.584,-1.179L0,31.323Z" style="fill:rgb(72,174,118);fill-rule:nonzero;"/>
                        </g>
                        <g transform="matrix(3.04611,0,0,3.04611,416.796,983.341)">
                            <path d="M0,-39.857L4.471,-39.857L7.901,-49.481L0,-49.481L-13.165,-49.481L-13.165,9.624L-10.237,1.408L0,-27.313L0,-39.857Z" style="fill:rgb(72,174,118);fill-rule:nonzero;"/>
                        </g>
                        <g transform="matrix(3.04611,0,0,3.04611,470.967,941.397)">
                            <path d="M0,-5.741L6.352,-8.358L6.352,-26.087L6.352,-35.711L-6.813,-35.711L-9.883,-35.711L-13.313,-26.087L-6.813,-26.087L-6.813,-8.19L-17.784,-12.833L-17.784,-13.543L-30.949,23.394L-30.949,29.97L-17.784,29.97L-17.784,15.355L-17.784,-2.28L-6.813,2.363L-3.002,3.967L-2.771,4.052L-6.813,4.052L-6.813,28.791L-2.033,15.38L4.771,-3.712L0,-5.741Z" style="fill:rgb(42,144,81);fill-rule:nonzero;"/>
                        </g>
                    </g>
                </g>
            </g>
        </g>
    </g>
</svg>
